<?xml version="1.0" encoding="UTF-8"?><svg id="a" xmlns="http://www.w3.org/2000/svg" viewBox="0 0 64 64"><polygon points="35.1 47.05 40.59 51.68 38 44.58 35.1 47.05" fill="#8c5ec6"/><polygon points="36.6 40.57 34.6 35 29.41 35 27.44 40.58 32 44.44 36.6 40.57" fill="#8c5ec6"/><polygon points="23.44 51.68 28.93 47.05 26 44.58 23.44 51.68" fill="#8c5ec6"/><circle cx="32" cy="19.86" r="2" fill="#fff"/><circle cx="32" cy="19.86" r="6" fill="#481a54"/><circle cx="32" cy="19.86" r="2" fill="#fff"/><path d="M21.52,29.35c.38,.42,.92,.65,1.48,.65,.52,.01,1.02-.18,1.4-.52,.81-.75,.87-2.01,.12-2.83-3.34-3.8-3.34-9.5,0-13.3,.75-.83,.68-2.1-.15-2.85s-2.1-.68-2.85,.15c-4.7,5.35-4.7,13.35,0,18.7Z" fill="#481a54"/><path d="M39,28c0,1.1,.9,2,2,2,.58,.01,1.13-.22,1.52-.65,4.7-5.35,4.7-13.35,0-18.7-.75-.83-2.02-.9-2.85-.15s-.9,2.02-.15,2.85c3.34,3.8,3.34,9.5,0,13.3-.34,.37-.53,.85-.52,1.35Z" fill="#481a54"/><path d="M47.39,4.56c-.8-.77-2.06-.75-2.83,.05s-.75,2.06,.05,2.83c.21,.2,.42,.41,.62,.62,6.59,6.94,6.32,17.91-.62,24.5-.39,.38-.61,.9-.61,1.44,0,1.1,.9,2,2,2,.52,0,1.02-.2,1.39-.56,.25-.24,.49-.48,.72-.72,8.13-8.53,7.8-22.03-.72-30.16Z" fill="#481a54"/><path d="M19.44,35.39c.77-.8,.74-2.06-.05-2.83-.21-.2-.42-.41-.62-.62-6.59-6.94-6.32-17.91,.62-24.5,.8-.77,.82-2.03,.05-2.83s-2.03-.82-2.83-.05c-.25,.24-.49,.48-.72,.72-8.13,8.53-7.8,22.03,.72,30.16,.37,.36,.87,.56,1.39,.56,.54,0,1.06-.22,1.44-.61Z" fill="#481a54"/><path d="M37.88,32.32c-.29-.79-1.04-1.32-1.88-1.32h-8c-.84,0-1.59,.53-1.88,1.32l-9,25c-.24,.67-.11,1.42,.35,1.97,.71,.84,1.97,.95,2.82,.24l11.71-9.86,11.71,9.86c.36,.3,.82,.47,1.29,.47,.23,0,.46-.04,.68-.12,1.04-.38,1.58-1.52,1.2-2.56l-9-25Z" fill="#481a54"/><polygon points="23.44 51.68 26 44.58 28.93 47.05 23.44 51.68" fill="#8c5ec6"/><polygon points="27.44 40.58 29.41 35 34.6 35 36.6 40.57 32 44.44 27.44 40.58" fill="#8c5ec6"/><polygon points="35.1 47.05 38 44.58 40.59 51.68 35.1 47.05" fill="#8c5ec6"/></svg>