<?xml version="1.0" encoding="UTF-8"?><svg id="a" xmlns="http://www.w3.org/2000/svg" viewBox="0 0 64 64"><path d="M33.13,38.86c-.27,0-.55-.06-.81-.17l-12.53-5.52v7.99c2.56,2.32,13.48,10.79,26.68-.08v-7.91l-12.53,5.52c-.26,.11-.53,.17-.81,.17Z" fill="#8c5ec6"/><polygon points="13.83 26.18 17.79 27.92 33.13 34.67 48.47 27.92 52.43 26.18 33.13 17.69 13.83 26.18" fill="#8c5ec6"/><path d="M58.2,24.35l-24.26-10.68c-.51-.23-1.1-.23-1.61,0L8.06,24.35c-.73,.32-1.19,1.04-1.19,1.83,0,.57,.25,1.1,.66,1.47v8.65l-2.63,4.38c-.57,.95-.26,2.18,.69,2.74,.32,.19,.68,.29,1.03,.29,.68,0,1.34-.35,1.72-.97l1.2-1.99,1.2,2c.38,.62,1.04,.97,1.72,.97,.35,0,.71-.09,1.03-.29,.95-.57,1.25-1.8,.69-2.74l-2.63-4.38v-6.77l4.27,1.88v10.6c0,.51,.2,1.01,.55,1.38,.1,.11,6.92,7.1,16.8,7.1,4.94,0,10.64-1.75,16.65-6.97,.44-.38,.69-.93,.69-1.51v-10.6l7.73-3.4c.73-.32,1.19-1.04,1.19-1.83s-.47-1.51-1.19-1.83Z" fill="#481a54"/><polygon points="48.47 27.92 33.13 34.67 17.79 27.92 13.83 26.18 33.13 17.69 52.43 26.18 48.47 27.92" fill="#8c5ec6"/><path d="M46.47,41.09c-13.2,10.87-24.12,2.4-26.68,.08v-7.99l12.53,5.52c.26,.11,.53,.17,.81,.17s.55-.06,.81-.17l12.53-5.52v7.91Z" fill="#8c5ec6"/></svg>