<?xml version="1.0" encoding="UTF-8"?><svg id="a" xmlns="http://www.w3.org/2000/svg" viewBox="0 0 64 64"><path d="M46,17c-.19,0-.37-.03-.55-.08l-9.45-2.7c1.08,2.06,1.97,4.38,2.63,6.88,.02,0,.04,0,.06,.01l10.12,3.68,5.73-3.28c-.77-2.64-1.82-5.02-3.07-7.02l-4.58,2.29c-.28,.14-.58,.21-.89,.21Z" fill="#8c5ec6"/><path d="M49,41c-.29,0-.57-.06-.83-.18l-8.45-3.84c-.3,2.74-.85,5.33-1.62,7.71l7.97,3.19,7.47-2.49c.94-2.33,1.64-4.95,2.05-7.75l-5.59,3.1c-.31,.17-.65,.26-1,.25Z" fill="#8c5ec6"/><path d="M49,29c-.23,0-.46-.04-.68-.12l-8.77-3.19c.29,2.02,.45,4.13,.45,6.31,0,.24,0,.47-.01,.71l8.92,4.05,7.08-3.95c0-.27,.01-.54,.01-.81,0-2.2-.19-4.35-.53-6.39l-5.47,3.12c-.3,.18-.65,.27-1,.27Z" fill="#8c5ec6"/><ellipse cx="22" cy="32" rx="14" ry="24" fill="#8c5ec6"/><ellipse cx="22" cy="32" rx="8" ry="12" fill="#8c5ec6"/><path d="M32.55,9.07l13.25,3.79,3.15-1.57c-2.06-2.08-4.44-3.29-6.95-3.29h-10.6c.35,.33,.69,.68,1.03,1.05,.04,0,.08,.01,.12,.02Z" fill="#8c5ec6"/><path d="M46.64,51.9c-.21,.07-.42,.1-.64,.1-.25,0-.5-.05-.74-.14l-8.6-3.44c-1.4,3.05-3.19,5.64-5.26,7.58h10.6c3.29,0,6.36-2.07,8.79-5.48l-4.15,1.38Z" fill="#8c5ec6"/><ellipse cx="22" cy="32" rx="4" ry="8" fill="#fff"/><path d="M42,4H22c-10.09,0-18,12.3-18,28s7.91,28,18,28h20c10.09,0,18-12.3,18-28S52.09,4,42,4Z" fill="#481a54"/><path d="M53.54,45.39l-7.47,2.49-7.97-3.19c.76-2.39,1.31-4.97,1.62-7.71l8.45,3.84c.26,.12,.54,.18,.83,.18,.35,0,.69-.08,1-.25l5.59-3.1c-.41,2.79-1.11,5.41-2.05,7.75Z" fill="#8c5ec6"/><path d="M42,56h-10.6c2.08-1.94,3.86-4.53,5.26-7.58l8.6,3.44c.24,.09,.49,.14,.74,.14,.22,0,.43-.03,.64-.1l4.15-1.38c-2.42,3.41-5.49,5.48-8.79,5.48Z" fill="#8c5ec6"/><ellipse cx="22" cy="32" rx="14" ry="24" fill="#8c5ec6"/><path d="M42,8c2.51,0,4.89,1.21,6.95,3.29l-3.15,1.57-13.25-3.79s-.08-.01-.12-.02c-.33-.36-.68-.72-1.03-1.05h10.6Z" fill="#8c5ec6"/><path d="M56,32c0,.27,0,.54-.01,.81l-7.08,3.95-8.92-4.05c0-.24,.01-.47,.01-.71,0-2.18-.16-4.29-.45-6.31l8.77,3.19c.22,.08,.45,.12,.68,.12,.35,0,.7-.09,1-.27l5.47-3.12c.34,2.05,.53,4.19,.53,6.39Z" fill="#8c5ec6"/><path d="M54.54,21.52l-5.73,3.28-10.12-3.68s-.04,0-.06-.01c-.66-2.51-1.55-4.82-2.63-6.88l9.45,2.7c.18,.05,.36,.08,.55,.08,.31,0,.61-.07,.89-.21l4.58-2.29c1.26,2,2.3,4.38,3.07,7.02Z" fill="#8c5ec6"/><ellipse cx="22" cy="32" rx="8" ry="12" fill="#481a54"/><ellipse cx="22" cy="32" rx="4" ry="8" fill="#fff"/></svg>