<?xml version="1.0" encoding="UTF-8"?><svg id="a" xmlns="http://www.w3.org/2000/svg" viewBox="0 0 64 64"><path d="M38,18h4v-4c0-3.31-2.69-6-6-6h-.01c1.26,1.67,2.01,3.75,2.01,6v4Z" fill="none"/><path d="M34,14c0-1.77-.78-3.36-2-4.46-1.22,1.1-2,2.69-2,4.46v4h4v-4Z" fill="none"/><path d="M26,14c0-2.25,.75-4.33,2.01-6h-.01c-3.31,0-6,2.69-6,6v4h4v-4Z" fill="none"/><rect x="15" y="22" width="34" height="34" fill="#8c5ec6"/><path d="M39,44h-14c-1.1,0-2-.9-2-2s.9-2,2-2h14c1.1,0,2,.9,2,2s-.9,2-2,2Z" fill="#8c5ec6"/><path d="M22,32h20c1.1,0,2,.9,2,2s-.9,2-2,2H22c-1.1,0-2-.9-2-2s.9-2,2-2Z" fill="#8c5ec6"/><path d="M51,18h-5v-4c0-5.52-4.48-10-10-10-1.42,0-2.77,.3-4,.84-1.23-.54-2.58-.84-4-.84-5.52,0-10,4.48-10,10v4h-5c-1.1,0-2,.9-2,2V58c0,1.1,.9,2,2,2H51c1.1,0,2-.9,2-2V20c0-1.1-.9-2-2-2Z" fill="#481a54"/><rect x="15" y="22" width="34" height="34" fill="#8c5ec6"/><path d="M36,8c3.31,0,6,2.69,6,6v4h-4v-4c0-2.25-.75-4.33-2.01-6h.01Z" fill="#fff"/><path d="M30,14c0-1.77,.78-3.36,2-4.46,1.22,1.1,2,2.69,2,4.46v4h-4v-4Z" fill="#fff"/><path d="M22,14c0-3.31,2.69-6,6-6h.01c-1.26,1.67-2.01,3.75-2.01,6v4h-4v-4Z" fill="#fff"/><path d="M22,36h20c1.1,0,2-.9,2-2s-.9-2-2-2H22c-1.1,0-2,.9-2,2s.9,2,2,2Z" fill="#fff"/><path d="M39,40h-14c-1.1,0-2,.9-2,2s.9,2,2,2h14c1.1,0,2-.9,2-2s-.9-2-2-2Z" fill="#fff"/></svg>