<?xml version="1.0" encoding="UTF-8"?><svg id="a" xmlns="http://www.w3.org/2000/svg" viewBox="0 0 64 64"><path d="M35.6,41.49c-.37,.52-.96,.83-1.6,.84h-.28c-.74-.11-1.36-.62-1.6-1.33l-3.54-9.9-1.84,3.22c-.36,.62-1.02,1-1.74,1h-8.52l15.52,15.52,15.51-15.51h-7.51l-4.4,6.16Z" fill="#8c5ec6"/><path d="M38.49,15.34l-5.08,5.08c-.79,.75-2.04,.75-2.83,0l-5.08-5.08c-1.92-1.92-4.52-3-7.24-3-5.66,0-10.26,4.57-10.26,10.24,0,2.72,1.08,5.34,3,7.26l1.48,1.48h11.36l3.42-6c.55-.96,1.77-1.29,2.73-.74,.41,.24,.73,.61,.89,1.06l3.71,10.4,2.78-3.89c.38-.52,.99-.82,1.63-.82h12.51l1.49-1.49c3.9-4.11,3.73-10.6-.38-14.5-3.96-3.76-10.17-3.76-14.13,0Z" fill="#8c5ec6"/><path d="M55.82,12.51c-5.57-5.56-14.59-5.56-20.16,0l-3.66,3.66-3.66-3.66c-5.5-5.23-14.14-5.23-19.64,0-5.71,5.42-5.94,14.45-.52,20.16l22.41,22.41c.37,.38,.88,.59,1.41,.59,.53,0,1.04-.21,1.41-.59l22.41-22.41c5.56-5.57,5.56-14.59,0-20.16Z" fill="#481a54"/><path d="M53,29.84l-1.49,1.49-4,4-15.51,15.51-15.52-15.52-4-4-1.48-1.48c-1.93-1.93-3.01-4.54-3-7.26,0-5.66,4.6-10.24,10.26-10.24,2.72,0,5.32,1.08,7.24,3l5.08,5.08c.79,.75,2.04,.75,2.83,0l5.08-5.08c3.96-3.76,10.17-3.76,14.13,0,4.11,3.9,4.28,10.39,.38,14.5Z" fill="#8c5ec6"/><path d="M37.37,32.15l-2.78,3.89-3.71-10.4c-.16-.45-.48-.83-.89-1.06-.96-.55-2.18-.21-2.73,.74l-3.42,6H12.48l4,4h8.52c.72,0,1.38-.38,1.74-1l1.84-3.22,3.54,9.9c.24,.71,.86,1.22,1.6,1.33h.28c.64,0,1.23-.32,1.6-.84l4.4-6.16h7.51l4-4h-12.51c-.64,0-1.25,.3-1.63,.82Z" fill="#fff"/></svg>