<?xml version="1.0" encoding="UTF-8"?><svg id="a" xmlns="http://www.w3.org/2000/svg" viewBox="0 0 64 64"><path d="M31.87,30h8.06c-.14-2.97-.6-5.53-1.25-7.74-.21,.06-.41,.12-.63,.17-1.76,.44-3.85,.77-6.18,.85v6.72Z" fill="#8c5ec6"/><path d="M41.1,17.23c1.59-.69,2.78-1.4,3.54-1.91-2.18-1.89-4.73-3.36-7.52-4.29,1.4,1.59,2.81,3.62,3.98,6.21Z" fill="#8c5ec6"/><path d="M18.14,44.74c-1.08-2.95-1.85-6.49-2.04-10.74h-7.95c.44,4.91,2.5,9.36,5.64,12.81,1.48-.81,2.93-1.5,4.35-2.07Z" fill="#8c5ec6"/><path d="M8.15,30h7.95c.15-3.64,.73-6.77,1.57-9.44-1.55-.65-3.13-1.41-4.76-2.35-2.64,3.29-4.35,7.35-4.75,11.79Z" fill="#8c5ec6"/><path d="M19.12,16.84c1.1-2.32,2.38-4.19,3.67-5.67-2.59,.92-4.96,2.31-7,4.06,1.13,.62,2.24,1.15,3.33,1.61Z" fill="#8c5ec6"/><path d="M31.87,11.51v7.82c1.99-.08,3.79-.38,5.39-.79-1.65-3.46-3.74-5.69-5.39-7.03Z" fill="#8c5ec6"/><path d="M47.67,37.34s.21,.23,.21,.23c0,0,.2-.23,.21-.23l.31-.31c.99-.99,2.26-1.64,3.62-1.87,.06-.39,.12-.77,.15-1.17h-8.24c-.02,.4-.04,.79-.07,1.19,1.32,.25,2.54,.89,3.5,1.85l.31,.31Z" fill="#8c5ec6"/><path d="M43.93,30h8.24c-.4-4.42-2.11-8.48-4.74-11.77-.89,.63-2.57,1.7-4.96,2.72,.77,2.58,1.3,5.58,1.45,9.05Z" fill="#8c5ec6"/><path d="M37.08,52.99c1.72-.57,3.34-1.35,4.85-2.31l-1.89-1.89c-.93,1.65-1.94,3.06-2.95,4.2Z" fill="#8c5ec6"/><path d="M39.8,35.66c.05-.54,.09-1.09,.12-1.66h-8.06v8.21c1.44,.05,2.77,.21,4.01,.42-.36-2.88,1.18-5.74,3.93-6.97Z" fill="#8c5ec6"/><path d="M22.91,18.19c1.73,.5,3.39,.83,4.96,1v-7.46c-1.56,1.31-3.44,3.36-4.96,6.46Z" fill="#8c5ec6"/><path d="M36.57,46.8c-1.42-.32-2.99-.55-4.7-.62v6.31c1.43-1.16,3.18-2.99,4.7-5.69Z" fill="#8c5ec6"/><path d="M16.94,49.67c1.77,1.33,3.74,2.4,5.86,3.15-1.05-1.21-2.09-2.68-3.04-4.44-.92,.37-1.87,.8-2.83,1.28Z" fill="#8c5ec6"/><path d="M27.87,34h-7.76c.18,3.77,.87,6.88,1.82,9.44,2.09-.59,4.07-.93,5.94-1.11v-8.34Z" fill="#8c5ec6"/><path d="M27.87,52.25v-5.92c-1.35,.15-2.76,.4-4.23,.79,1.37,2.36,2.92,4.02,4.23,5.14Z" fill="#8c5ec6"/><path d="M27.87,23.18c-2.01-.19-4.16-.59-6.43-1.27-.7,2.28-1.19,4.95-1.34,8.08h7.76v-6.82Z" fill="#8c5ec6"/><path d="M55.16,43.73h0c1.06-1.07,1.05-2.77,0-3.83-.03-.03-.06-.05-.09-.08-.52-.48-1.18-.73-1.85-.72-.16,0-.32,.01-.48,.04-.54,.09-1.06,.34-1.47,.75l-.81,.81-1.19,1.19c-.39,.39-.89,.58-1.39,.58-.51,0-1.01-.2-1.39-.58l-2-2c-.32-.32-.71-.54-1.12-.66-.27-.08-.55-.13-.83-.13-.7,0-1.4,.26-1.93,.79-1.06,1.06-1.06,2.77,0,3.83l5.71,5.65,1.52,1.5,.05,.05,.02-.02,2.62-2.59,4.63-4.58Z" fill="#fff"/><path d="M56,35.69c.17-1.21,.27-2.43,.27-3.69,0-14.38-11.69-26.08-26.06-26.1h-.04c-.16,0-.31,0-.47,.01-.02,0-.03,0-.05,0-14.16,.28-25.59,11.87-25.59,26.09s11.52,25.91,25.75,26.1c.02,0,.04,0,.06,0s.04,0,.06,0c.08,0,.15,0,.23,0h0c5.43,0,10.48-1.67,14.66-4.52l1.6,1.6c.38,.37,.9,.56,1.43,.55h.05c.53,.01,1.05-.18,1.43-.55l2.43-2.43,6.19-6.19c.65-.64,1.16-1.41,1.5-2.25,1.36-3.35-.19-7.15-3.44-8.63Z" fill="#481a54"/><path d="M47.88,50.93l-.05-.05-1.52-1.5-5.71-5.65c-1.06-1.06-1.05-2.78,0-3.83,.53-.53,1.23-.8,1.93-.79,.28,0,.56,.05,.83,.13,.41,.13,.8,.34,1.12,.66l2,2c.39,.39,.89,.58,1.39,.58,.51,0,1.01-.2,1.39-.58l1.19-1.19,.81-.81c.42-.42,.93-.66,1.47-.75,.16-.03,.32-.04,.48-.04,.66,0,1.32,.24,1.85,.72,.03,.03,.06,.05,.09,.08,1.06,1.06,1.06,2.76,0,3.82h0l-4.63,4.59-2.62,2.59-.02,.02Z" fill="#fff"/><path d="M35.88,42.63c-1.23-.21-2.56-.37-4.01-.42v-8.21h8.06c-.03,.57-.07,1.12-.12,1.66-2.75,1.23-4.29,4.09-3.93,6.97Z" fill="#8c5ec6"/><path d="M38.05,22.43c.21-.05,.42-.11,.63-.17,.65,2.2,1.1,4.77,1.25,7.74h-8.06v-6.72c2.34-.09,4.42-.41,6.18-.85Z" fill="#8c5ec6"/><path d="M31.87,19.33v-7.82c1.65,1.34,3.75,3.57,5.39,7.03-1.6,.41-3.41,.71-5.39,.79Z" fill="#8c5ec6"/><path d="M43.86,35.19c.03-.39,.05-.78,.07-1.19h8.24c-.04,.39-.1,.78-.15,1.17-1.36,.23-2.63,.88-3.62,1.87l-.31,.31s-.21,.23-.21,.23c0,0-.21-.23-.21-.23l-.31-.31c-.96-.96-2.18-1.6-3.5-1.85Z" fill="#8c5ec6"/><path d="M52.18,30h-8.24c-.15-3.47-.68-6.47-1.45-9.05,2.39-1.01,4.07-2.09,4.96-2.72,2.63,3.29,4.34,7.34,4.74,11.77Z" fill="#8c5ec6"/><path d="M41.1,17.23c-1.17-2.58-2.58-4.62-3.98-6.21,2.8,.93,5.35,2.4,7.52,4.29-.77,.51-1.96,1.22-3.54,1.91Z" fill="#8c5ec6"/><path d="M31.87,46.18c1.7,.07,3.27,.29,4.7,.62-1.51,2.71-3.26,4.53-4.7,5.69v-6.31Z" fill="#8c5ec6"/><path d="M37.08,52.99c1.01-1.15,2.02-2.55,2.95-4.2l1.89,1.89c-1.5,.95-3.12,1.74-4.85,2.31Z" fill="#8c5ec6"/><path d="M21.93,43.44c-.94-2.56-1.63-5.67-1.82-9.44h7.76v8.34c-1.87,.17-3.85,.52-5.94,1.11Z" fill="#8c5ec6"/><path d="M27.87,46.32v5.92c-1.32-1.12-2.87-2.77-4.23-5.14,1.47-.38,2.88-.64,4.23-.79Z" fill="#8c5ec6"/><path d="M22.81,52.82c-2.12-.75-4.09-1.83-5.86-3.15,.96-.48,1.9-.91,2.83-1.28,.95,1.76,1.99,3.22,3.04,4.44Z" fill="#8c5ec6"/><path d="M20.11,30c.15-3.13,.64-5.8,1.34-8.08,2.26,.67,4.42,1.08,6.43,1.27v6.82h-7.76Z" fill="#8c5ec6"/><path d="M19.12,16.84c-1.09-.46-2.2-.99-3.33-1.61,2.04-1.76,4.41-3.14,7-4.06-1.29,1.49-2.57,3.35-3.67,5.67Z" fill="#8c5ec6"/><path d="M17.67,20.56c-.84,2.67-1.41,5.79-1.57,9.44h-7.95c.4-4.44,2.12-8.5,4.75-11.79,1.63,.94,3.21,1.7,4.76,2.35Z" fill="#8c5ec6"/><path d="M16.1,34c.19,4.26,.96,7.8,2.04,10.74-1.41,.57-2.87,1.26-4.35,2.07-3.14-3.45-5.19-7.9-5.64-12.81h7.95Z" fill="#8c5ec6"/><path d="M27.87,19.19c-1.57-.17-3.23-.5-4.96-1,1.53-3.09,3.4-5.15,4.96-6.46v7.46Z" fill="#8c5ec6"/></svg>