<?xml version="1.0" encoding="UTF-8"?><svg id="a" xmlns="http://www.w3.org/2000/svg" viewBox="0 0 64 64"><g><rect x="43" y="27" width="10.08" height="14" fill="#8c5ec6"/><path d="M43,45v8.96c.36,.02,.72,.04,1.11,.04,3.93,0,6.72-.82,8.09-2.37,1-1.13,.91-2.36,.91-2.37-.01-.09-.02-.17-.02-.26v-4h-10.08Z" fill="#8c5ec6"/><path d="M35.1,20.81c0,.06,0,.13,0,.19v2h17.97v-2c0-.07,0-.14,.01-.21,0-.02,.28-3.25-1.75-5.47-1.17-1.28-2.93-2.03-5.24-2.25v-2.08h0v-2h0v-1h-4v3h0v2.17c-2.31,.33-4.07,1.14-5.26,2.44-2,2.19-1.75,5.17-1.75,5.2Z" fill="#8c5ec6"/><path d="M57.08,21.08c.06-.81,.22-5.12-2.74-8.41-1.13-1.25-2.55-2.18-4.23-2.8v-3.88c0-1.1-.9-2-2-2h-8c-1.1,0-2,.9-2,2v4.09c-1.7,.66-3.13,1.61-4.26,2.87-2.93,3.25-2.8,7.33-2.74,8.12v1.92H9c-1.1,0-2,.9-2,2V58c0,1.1,.9,2,2,2H41c1.1,0,2-.9,2-2v-.04c.37,.02,.73,.04,1.11,.04,5.19,0,8.92-1.26,11.09-3.73,1.97-2.24,1.94-4.67,1.88-5.36V21.08Z" fill="#481a54"/><path d="M53.1,49.26s.09,1.24-.91,2.37c-1.36,1.55-4.16,2.37-8.09,2.37-.39,0-.75-.02-1.11-.04v-8.96h10.08v4c0,.09,0,.17,.02,.26Z" fill="#8c5ec6"/><polygon points="39 56 35.45 56 11 56 11 27 31.11 27 33.11 27 34 27 35.11 27 39 27 39 41 39 45 39 53.27 39 55.36 39 56" fill="#481a54"/><path d="M42.11,13.17v-2.17h0v-3h4v1h0v2h0v2.08c2.31,.22,4.07,.97,5.24,2.25,2.02,2.22,1.75,5.45,1.75,5.47,0,.07-.01,.14-.01,.21v2h-17.97v-2c0-.06,0-.13,0-.19,0-.03-.25-3.01,1.75-5.2,1.18-1.29,2.94-2.11,5.26-2.44Z" fill="#8c5ec6"/><rect x="43" y="27" width="10.08" height="14" fill="#8c5ec6"/><polygon points="39 45 39 41 39 27 35.11 27 34 27 33.11 27 31.11 27 11 27 11 56 35.45 56 39 56 39 55.36 39 53.27 39 45" fill="#8c5ec6"/><path d="M19,50c0,1.1-.9,2-2,2s-2-.9-2-2v-7c0-1.1,.9-2,2-2s2,.9,2,2v7Z" fill="#8c5ec6"/><path d="M17,35c0-1.1,.9-2,2-2h4c0-1.1,.9-2,2-2s2,.9,2,2h4s.07,0,.11,.01c1.05,.06,1.89,.92,1.89,1.99s-.84,1.93-1.89,1.99c-.04,0-.07,.01-.11,.01h-12c-1.1,0-2-.9-2-2Z" fill="#8c5ec6"/><path d="M27,50c0,1.1-.9,2-2,2s-2-.9-2-2v-7c0-1.1,.9-2,2-2s2,.9,2,2v7Z" fill="#8c5ec6"/><path d="M31,50v-7c0-.22,.04-.43,.11-.63,.27-.79,1.01-1.37,1.89-1.37,.02,0,.04,0,.05,0,.02,0,.04,0,.06,0,1.05,.06,1.89,.92,1.89,1.99v7c0,.76-.43,1.42-1.06,1.75-.28,.15-.6,.25-.94,.25-.56,0-1.06-.23-1.42-.59-.36-.36-.58-.86-.58-1.41Z" fill="#8c5ec6"/><path d="M17,41c-1.1,0-2,.9-2,2v7c0,1.1,.9,2,2,2s2-.9,2-2v-7c0-1.1-.9-2-2-2Z" fill="#481a54"/><path d="M33.94,51.75c.63-.34,1.06-.99,1.06-1.75v-7c0-1.07-.84-1.93-1.89-1.99-.02,0-.04,0-.06,0-.02,0-.04,0-.05,0-.88,0-1.62,.58-1.89,1.37-.07,.2-.11,.41-.11,.63v7c0,.55,.22,1.05,.58,1.41,.36,.37,.86,.59,1.42,.59,.34,0,.66-.09,.94-.25Z" fill="#481a54"/><path d="M25,41c-1.1,0-2,.9-2,2v7c0,1.1,.9,2,2,2s2-.9,2-2v-7c0-1.1-.9-2-2-2Z" fill="#481a54"/></g><path d="M31,37s.07,0,.11-.01c1.05-.06,1.89-.92,1.89-1.99s-.84-1.93-1.89-1.99c-.04,0-.07-.01-.11-.01h-4c0-1.1-.9-2-2-2s-2,.9-2,2h-4c-1.1,0-2,.9-2,2s.9,2,2,2h12Z" fill="#fff"/></svg>