<?xml version="1.0" encoding="UTF-8"?><svg id="a" xmlns="http://www.w3.org/2000/svg" viewBox="0 0 64 64"><rect x="23" y="49.01" width="18" height="7" fill="#fff"/><path d="M20.67,12.32c-7,6.26-7.6,17.01-1.34,24.01,.42,.47,.86,.91,1.33,1.33,1.47,1.29,2.32,3.15,2.34,5.11v2.25h7v-9.04l-4.25-3.4c-.86-.69-1-1.95-.31-2.81,.18-.23,.41-.41,.67-.54l6.42-3.21-6.42-3.21c-.99-.49-1.39-1.69-.9-2.68,.13-.26,.31-.49,.54-.67l5-4c.86-.69,2.12-.56,2.81,.3,.69,.86,.56,2.12-.3,2.81h-.02l-2.56,2.06,7.2,3.6c.99,.49,1.39,1.7,.89,2.68-.19,.39-.51,.7-.89,.89l-7.2,3.6,2.56,2.05c.47,.38,.75,.95,.75,1.56v10h7v-2.25c.02-1.96,.87-3.81,2.34-5.1,7-6.26,7.6-17.01,1.34-24.01s-17.01-7.6-24.01-1.34Z" fill="#8c5ec6"/><path d="M34.38,4.12c-11.52-1.31-21.93,6.97-23.24,18.49-.8,6.77,1.76,13.49,6.85,18.02,.62,.54,.99,1.31,1.01,2.13v15.25c0,1.1,.9,2,2,2h22c1.1,0,2-.9,2-2v-15.25c.02-.82,.38-1.59,1-2.12,3.84-3.43,6.28-8.16,6.86-13.27,1.31-11.52-6.97-21.93-18.49-23.24Z" fill="#481a54"/><rect x="23" y="49.01" width="18" height="7" fill="#fff"/><path d="M43.34,37.66c-1.47,1.29-2.32,3.15-2.34,5.1v2.25h-7v-10c0-.61-.28-1.18-.75-1.56l-2.56-2.05,7.2-3.6c.39-.19,.7-.51,.89-.89,.49-.99,.09-2.19-.89-2.68l-7.2-3.6,2.56-2.05h.02c.86-.71,.99-1.97,.3-2.83-.69-.86-1.95-.99-2.81-.3l-5,4c-.23,.18-.41,.41-.54,.67-.49,.99-.09,2.19,.9,2.68l6.42,3.21-6.42,3.21c-.26,.13-.49,.31-.67,.54-.69,.86-.55,2.12,.31,2.81l4.25,3.4v9.04h-7v-2.25c-.02-1.96-.87-3.82-2.34-5.11-.47-.42-.91-.86-1.33-1.33-6.26-7-5.66-17.75,1.34-24.01s17.75-5.66,24.01,1.34,5.66,17.75-1.34,24.01Z" fill="#8c5ec6"/></svg>