<?xml version="1.0" encoding="UTF-8"?><svg id="a" xmlns="http://www.w3.org/2000/svg" viewBox="0 0 68 64"><circle cx="32.46" cy="18.73" r="7.96" fill="#0d9dda"/><path d="M44.84,49.69c-1.2,0-2.38-.42-3.32-1.17l-4.42-3.54c-1.11-.88-1.8-2.15-1.96-3.56-.16-1.41,.25-2.8,1.13-3.9,1.02-1.27,2.52-1.99,4.15-1.99,1.11,0,2.21,.36,3.11,1.01l.11-.16c-2.36-3.7-6.48-6.16-11.18-6.16-7.32,0-13.27,5.95-13.27,13.27v9.73h26.54v-3.61h-.02c-.28,.05-.58,.07-.87,.07h0Z" fill="#0d9dda"/><path d="M51.98,33.16c-.29-.19-.62-.27-.95-.27-.58,0-1.16,.29-1.5,.82l-1.8,2.84-.04,.06-1.12,1.76-1.25,1.96-.92,1.44-2.35-1.88-.53-.42c-.33-.27-.72-.39-1.11-.39-.52,0-1.04,.23-1.38,.66-.61,.76-.49,1.88,.27,2.49l4.42,3.54c.32,.26,.71,.39,1.11,.39,.1,0,.19,0,.29-.03,.21-.04,.42-.12,.59-.22,.24-.14,.45-.34,.61-.58l1.16-1.82,1.57-2.47,3.46-5.44c.52-.82,.28-1.92-.54-2.44Z" fill="#fff"/><path d="M53.88,30.18c-.86-.54-1.84-.83-2.85-.83h0c-1.82,0-3.5,.92-4.48,2.46l-.87,1.36c-1.72-2.2-3.96-3.96-6.56-5.09,2.92-2.09,4.83-5.49,4.83-9.35,0-6.34-5.16-11.5-11.5-11.5s-11.5,5.16-11.5,11.5c0,3.86,1.91,7.26,4.83,9.35-5.95,2.58-10.14,8.52-10.14,15.42v11.5c0,.97,.8,1.77,1.77,1.77h30.07c.97,0,1.77-.8,1.77-1.77v-7.69s.04-.05,.05-.08l6.19-9.73c1.57-2.47,.84-5.76-1.63-7.33Z" fill="#032d60"/><path d="M45.73,53.23H19.19v-9.73c0-7.32,5.95-13.27,13.27-13.27,4.7,0,8.83,2.46,11.18,6.16l-.11,.16c-.9-.65-2-1.01-3.11-1.01-1.62,0-3.13,.73-4.15,1.99-.88,1.11-1.29,2.49-1.13,3.9,.16,1.41,.85,2.67,1.96,3.56l4.42,3.54c.94,.75,2.11,1.17,3.32,1.17,.29,0,.58-.03,.87-.07h.02v3.61h0Z" fill="#0d9dda"/><circle cx="32.46" cy="18.73" r="7.96" fill="#0d9dda"/><path d="M47.5,43.51l-1.16,1.82c-.15,.24-.36,.43-.61,.58-.19,.11-.38,.19-.59,.22-.1,.02-.19,.03-.29,.03-.4,0-.79-.13-1.11-.39l-4.42-3.54c-.76-.61-.88-1.73-.27-2.49,.35-.43,.87-.66,1.38-.66,.39,0,.78,.12,1.11,.39l.53,.42,2.35,1.88,.92-1.44,1.25-1.96,1.12-1.76,.04-.06,1.8-2.84c.34-.53,.91-.82,1.5-.82,.33,0,.65,.09,.95,.27,.82,.52,1.07,1.62,.54,2.44l-3.46,5.44-1.57,2.47Z" fill="#fff"/></svg>