<?xml version="1.0" encoding="UTF-8"?><svg id="a" xmlns="http://www.w3.org/2000/svg" viewBox="0 0 64 64"><path d="M32,57.83c-14.17,.07-25.71-11.37-25.78-25.54-.07-14.17,11.37-25.71,25.54-25.78,14.17-.07,25.71,11.37,25.78,25.54v.12c.03,14.14-11.4,25.63-25.54,25.66h0Z" fill="#0d9dda"/><path d="M24.9,44.56c-4.44-2.2-7.23-6.75-7.16-11.71,0-2.62,.76-5.19,2.21-7.38l9.21,13.79h5.57l9.21-13.79c1.45,2.19,2.22,4.76,2.21,7.38,.04,4.61-2.36,8.9-6.32,11.27l1.77,6.82c10.34-5.38,14.37-18.13,8.98-28.47-1.8-3.47-4.53-6.36-7.88-8.37l-10.7,16.59L21.41,14.05c-10.03,5.92-13.37,18.86-7.44,28.9,2.15,3.65,5.35,6.56,9.18,8.36l1.75-6.75Z" fill="#fff"/><path d="M32,4c-15.46,0-28,12.54-28,28s12.54,28,28,28,28-12.54,28-28S47.46,4,32,4Zm0,53.83c-14.17,.07-25.71-11.37-25.78-25.54-.07-14.17,11.37-25.71,25.54-25.78,14.17-.07,25.71,11.37,25.78,25.54v.12c.03,14.14-11.4,25.63-25.54,25.66h0Z" fill="#032d60"/></svg>