<?xml version="1.0" encoding="UTF-8"?>
<svg id="a" xmlns="http://www.w3.org/2000/svg" viewBox="0 0 55.63 56.05">
  <defs>
    <style>
      .cls-1 {
        fill: #032d60;
      }

      .cls-2 {
        fill: #fff;
      }

      .cls-3 {
        fill: #0d9dda;
      }
    </style>
  </defs>
  <path class="cls-3" d="m18.55,14.64c-1.15-.42-2.73-.96-3.94-1.19-.39-.08-.75-.12-1.03-.12-.76,0-1.04.33-.33,1.24.29.37.71.82,1.36,1.4.82.74,1.2,1.04,2.2,2.04s.65,2.21.09,2.3l-1.61.28c-.48.08-.95.2-1.41.32-3.69,1.01-6.89,3.38-8.86,6.69-.24.41-.44.78-.62,1.14-.09.17-.18.35-.25.5-.12.25-.16.56-.13.87.02.25.09.5.19.73.26.61.78,1.11,1.46,1.11.19,0,.4-.04.62-.13.21-.09.44-.22.67-.41.43-.62.99-1.35,1.7-2.21.7-.85,1.96-.98,2.81-.28s.98,1.96.28,2.81c-.54.66-.95,1.19-1.25,1.6-1.18,2.35-2.97,6.46-1.67,6.66,0,0,1.66.05,3.29.13.67-1.72,1.5-3.8,1.69-4.18.07-.14.14-.31.23-.5.78-1.76,2.39-5.41,7.78-6.78,1.54-.47,3.2-.28,4.59.49.37-1.03,1.37-2.09,3.18-2.16,1.84-.06,4.96.9,7.38,3.46.69-.76,1.69-1.25,2.72-1.25.27,0,.82,0,1.39.28.51.25.91.65,1.18,1.2l.07.11c2.61,4.4,3.8,7.43,4.27,9.55l2.9-.23c.51-.04.85-.5.8-.97,0-.11-.04-.22-.09-.32-.46-.87-.95-1.72-1.45-2.57-.69-1.15-1.41-2.29-2.18-3.39l-.76-1.08c-.06-.09-.09-.17-.12-.26-.08-.2-.08-.37,0-.5.08-.14.23-.25.45-.26l1.76-.07.41-.02c.58,0,.92-.17,1.09-.43.54-.79-.34-2.37-.04-2.38.09,0,.2,0,.29-.02.36-.02.76-.04,1.11-.04s.65.02.81.06h.06v.02h0c-.11-1.26-.63-2.23-1.36-3.07-1.46-1.54-3.74-.95-3.84-.92-1.06.29-2.16-.33-2.46-1.39s.31-2.15,1.36-2.46c.08-.02,1.01-.28,2.28-.28-1.07-2.52-2.68-4.31-4.78-5.32-.31-.15-.64-.28-.98-.4-1.1-.38-2.3-.58-3.6-.58-.5,0-1,.04-1.51.09,0,.03,0,.05,0,.08v.05c-.21.92-1.04,1.55-1.95,1.55-.15,0-.3-.02-.45-.05-1.08-.25-1.75-1.32-1.5-2.4.26-1.14.06-2.11-.22-2.81-.03-.06-.05-.12-.08-.17,0-.03-.03-.06-.04-.09-1.06-2-2.69-3.04-3.48-3.46,0,0-.03-.02-.04-.02-.08-.04-.17-.06-.26-.06-.14,0-.28.05-.39.16l-.85.81c-.11.1-.25.16-.39.16-.04,0-.07-.02-.11-.02-.12-.02-.23-.07-.32-.17-.36-.42-.9-1.05-1.27-1.51-.04-.05-.1-.09-.16-.13-.11-.08-.23-.13-.35-.13-.15,0-.29.08-.37.26l-.16.44-.37,1.03c-.06.15-.22.22-.39.22-.08,0-.15-.02-.23-.04-.08-.03-.15-.07-.21-.13-.03-.03-.11-.1-.21-.2-.32-.29-.93-.85-1.53-1.4-.46-.43-.92-.85-1.23-1.15-.07-.06-.12-.12-.18-.17-.08-.09-.15-.15-.18-.19,0,0,1.12,6.04.64,8.96l-.11.65c-.06.34-.24.62-.49.81-.14.11-.3.19-.48.23-.11.03-.23.06-.35.06-.15,0-.31-.03-.46-.08h-.03Z"/>
  <path class="cls-2" d="m19.01,47s.03-.03.05-.04c1.24-1.01,2.64-1.81,3.92-2.36l.93-.39c.25-.1.51-.16.78-.16h.27c.37,0,.73.1,1.04.29.84.52,1.37.71,1.96.71s1.11-.19,1.96-.71c.31-.19.68-.29,1.04-.29h.27c.27,0,.53.05.78.16l.92.39c1.49.63,3.13,1.61,4.5,2.85,3.1-1.8,4.81-3.96,5.16-4.43,0-.02,0-.03.02-.05.02-.04.03-.08.05-.12,0,0,0-.03,0-.04.19-.53-.03-3-3.03-8.41-.16.45-.31.84-.47,1.17-.34.73-1.06,1.2-1.88,1.18-.81,0-1.53-.49-1.85-1.23-1.29-2.93-3.63-4-4.94-4.32.13.42.3.84.43,1.02.67.66.77,1.66.29,2.47s-1.48,1.16-2.38.89c-.92-.27-2.53-1.1-4.05-2.54-.5-.47-1.2-.65-1.82-.46-.04,0-.1.03-.13.04-3.49.87-4.41,2.95-5.08,4.48-.11.26-.21.48-.31.68-.13.27-.86,2.11-1.6,4.01-.02.06-.05.12-.07.19h0c.04.13.08.25.12.38.46,1.29,1.39,3.1,3.12,4.64h-.01Z"/>
  <path class="cls-2" d="m33.96,37.36c1.1,0,2,1.34,2,3,0,.89-.26,1.68-.67,2.23-.06.08-.11.15-.18.22-.33.35-.72.55-1.15.55s-.86-.23-1.2-.61c-.07-.08-.14-.16-.2-.25-.37-.54-.6-1.3-.6-2.14,0-1.66.9-3,2-3Z"/>
  <path class="cls-2" d="m21.96,37.36c1.1,0,2,1.34,2,3,0,.71-.17,1.35-.44,1.86-.06.11-.12.22-.18.31-.36.51-.84.83-1.37.83s-1.06-.34-1.42-.89c-.07-.11-.13-.22-.19-.35-.24-.5-.39-1.1-.39-1.76,0-1.66.9-3,2-3h0Z"/>
  <path class="cls-1" d="m52.52,32.75c.3-.39.52-.78.68-1.18.27-.11.52-.26.76-.43,1.14-.83,1.78-2.18,1.65-3.58-.2-2.3-1.22-4.03-2.27-5.28-.03-.03-.05-.07-.08-.11-.02-.02-.03-.03-.05-.05-.4-.46-.81-.86-1.18-1.18,0-.49-.09-.98-.25-1.45-1.4-4.05-3.9-7.03-7.22-8.63-1.89-.91-4.01-1.37-6.31-1.37-.49,0-.99.02-1.49.06-.2-.58-.44-1.11-.7-1.61-.52-1.07-1.09-1.73-1.21-1.87-1.44-1.82-3.1-2.89-4.02-3.38-.65-.34-1.38-.52-2.12-.52-.35,0-.69.04-1.03.12-.81-.62-1.81-.97-2.82-.97-.61,0-1.19.12-1.73.35-.13-.12-.23-.22-.29-.29-.77-.9-1.89-1.38-3.03-1.38-.55,0-1.11.11-1.64.35-1.68.76-2.63,2.56-2.29,4.38.25,1.34.53,3.36.64,5.05-1.5-.4-2.37-.46-2.94-.46-2.49,0-3.94,1.47-4.47,2.86-.89,2.32.35,4.25,1.59,5.57-3.79,1.53-7,4.25-9.12,7.8-.39.66-.75,1.32-1.05,1.97-.85,1.79-.67,4,.45,5.77.93,1.47,2.41,2.42,4.04,2.61-.8,2.34-.86,3.93-.27,5.34.61,1.45,1.9,2.46,3.44,2.71.17.03.34.04.51.05,1.17.03,2.51.09,3.6.14.73,1.84,2.02,4.02,4.08,5.86-.24.43-.46.87-.61,1.33l-.69,2.08c-.22.66-.08,1.38.36,1.91s1.13.79,1.82.7l6.61-.94,3.62.91c.32.08.65.08.97,0l3.62-.91,6.61.94c.09,0,.19.02.28.02.59,0,1.15-.26,1.54-.72.44-.53.58-1.26.36-1.91l-.69-2.08c-.08-.24-.19-.46-.3-.68,3.35-2.05,5.31-4.41,5.91-5.2l.12-.13.06-.07.16-.18c.2-.22.4-.45.55-.61l.35-.14,2.78-.22c1.64-.13,3.09-1.07,3.89-2.51.79-1.44.81-3.17.05-4.63-.61-1.17-1.27-2.32-1.96-3.45.33-.27.57-.54.75-.77h-.02Z"/>
  <path class="cls-1" d="m31.48,51.12l-3.52.88-3.52-.88c-.16-.04-.32-.06-.48-.06-.09,0-.19,0-.28.02l-3.6.51c.43-.61,1.03-1.19,1.71-1.71.16-.12.32-.24.48-.35s.33-.22.5-.33h0c.58-.35,1.17-.66,1.75-.91l.17-.07c.89.46,1.95.84,3.24.84s2.35-.38,3.24-.84l.17.07c.61.26,1.24.58,1.84.96.04.02.07.04.11.07.18.12.37.24.54.37.17.12.33.25.49.37.59.47,1.11.99,1.49,1.54l-3.6-.51c-.26-.03-.52-.02-.77.04h.04Z"/>
  <path class="cls-3" d="m19.84,14.43c.24-.2.43-.48.49-.81l.11-.65c.49-2.91-.64-8.96-.64-8.96.03.04.1.11.18.19.05.05.11.11.18.17.31.3.76.72,1.23,1.15.6.55,1.21,1.1,1.53,1.4.1.1.18.16.21.2.06.06.13.1.21.13.07.03.15.04.23.04.17,0,.33-.07.39-.22l.37-1.03.16-.44c.07-.19.21-.26.37-.26.12,0,.24.06.35.13.06.04.12.08.16.13.37.46.91,1.09,1.27,1.51.09.1.2.15.32.17.04,0,.07.02.11.02.14,0,.28-.05.39-.16l.85-.81c.11-.1.25-.16.39-.16.09,0,.18.02.26.06,0,0,.03.02.04.02.79.42,2.42,1.47,3.48,3.46,0,.03.03.06.04.09.03.05.05.12.08.17.28.7.49,1.67.22,2.81-.25,1.08.42,2.15,1.5,2.4.15.03.3.05.45.05.91,0,1.73-.62,1.95-1.55v-.05s0-.05,0-.08c.51-.06,1.01-.09,1.51-.09,1.3,0,2.5.2,3.6.58.33.12.66.25.98.4,2.11,1.01,3.71,2.8,4.78,5.32-1.27,0-2.19.25-2.28.28-1.05.31-1.66,1.4-1.36,2.46s1.4,1.67,2.46,1.39c.1-.03,2.38-.62,3.84.92.73.84,1.25,1.81,1.36,3.07h0l-.03-.02h-.03c-.16-.04-.45-.06-.81-.06s-.75.02-1.11.04c-.1,0-.2,0-.29.02-.3.02.58,1.6.04,2.38-.18.26-.51.43-1.09.43l-.41.02-1.76.07c-.23,0-.37.11-.45.26-.07.13-.07.3,0,.5.03.08.06.17.12.26l.76,1.08c.77,1.1,1.49,2.23,2.18,3.39.5.85,1,1.7,1.45,2.57.06.11.08.21.09.32.05.47-.29.93-.8.97l-2.9.23c-.47-2.11-1.66-5.15-4.27-9.55l-.07-.11c-.27-.54-.67-.94-1.18-1.2-.57-.28-1.13-.27-1.39-.28-1.03,0-2.02.49-2.72,1.25-2.42-2.55-5.54-3.52-7.38-3.46-1.81.07-2.81,1.14-3.18,2.16-1.4-.77-3.05-.97-4.59-.49-5.39,1.37-7,5.02-7.78,6.78-.08.19-.16.35-.23.5-.19.38-1.01,2.46-1.69,4.18-1.63-.08-3.29-.13-3.29-.13-1.3-.21.49-4.31,1.67-6.66.31-.42.71-.94,1.25-1.6.7-.85.58-2.11-.28-2.81-.85-.7-2.11-.58-2.81.28-.71.87-1.27,1.59-1.7,2.21-.23.19-.46.32-.67.41-.22.09-.42.13-.62.13-.68,0-1.19-.5-1.46-1.11-.1-.24-.17-.48-.19-.73-.03-.31.01-.61.13-.87.07-.15.17-.33.25-.5.18-.35.38-.73.62-1.14,1.97-3.31,5.17-5.68,8.86-6.69.46-.13.93-.24,1.41-.32l1.61-.28c.56-.1.91-1.3-.09-2.3s-1.38-1.3-2.2-2.04c-.65-.58-1.07-1.03-1.36-1.4-.71-.91-.44-1.24.33-1.24.29,0,.64.05,1.03.12,1.21.24,2.8.77,3.94,1.19.15.06.31.08.46.08.12,0,.24-.03.35-.06.17-.05.34-.12.48-.23h.03Z"/>
  <path class="cls-2" d="m15.77,42h0c.02-.07.05-.13.07-.2.74-1.89,1.48-3.73,1.6-4.01.1-.19.2-.42.31-.68.67-1.52,1.59-3.6,5.08-4.48.04,0,.1-.03.13-.04.62-.19,1.32-.02,1.82.46,1.52,1.44,3.13,2.27,4.05,2.54.9.27,1.9-.08,2.38-.89s.38-1.81-.29-2.47c-.13-.18-.3-.6-.43-1.02,1.31.32,3.65,1.39,4.94,4.32.32.74,1.05,1.22,1.85,1.23.82,0,1.54-.45,1.88-1.18.16-.33.31-.73.47-1.17,3.01,5.4,3.23,7.87,3.03,8.41,0,0,0,.03,0,.04-.02.04-.03.08-.05.12,0,.02,0,.03-.02.05-.35.47-2.06,2.63-5.16,4.43-1.38-1.24-3.01-2.22-4.5-2.85l-.92-.39c-.25-.1-.51-.16-.78-.16h-.27c-.37,0-.73.1-1.04.29-.84.52-1.37.71-1.96.71s-1.11-.19-1.96-.71c-.31-.19-.67-.29-1.04-.29h-.27c-.27,0-.53.05-.78.16l-.93.39c-1.28.54-2.68,1.35-3.92,2.36-.02,0-.03.03-.05.04-1.73-1.54-2.66-3.34-3.12-4.64-.05-.13-.08-.25-.12-.37h.01Z"/>
  <path class="cls-3" d="m34.35,50.05c-.16-.13-.32-.25-.49-.37-.18-.13-.36-.25-.54-.37-.04-.02-.07-.05-.11-.07-.6-.38-1.23-.7-1.84-.96l-.17-.07c-.89.46-1.95.84-3.24.84s-2.35-.38-3.24-.84l-.17.07c-.58.24-1.17.55-1.75.91h0c-.17.11-.34.22-.5.33s-.33.23-.48.35c-.68.52-1.29,1.1-1.71,1.71l3.6-.51c.09,0,.19-.02.28-.02.16,0,.33.02.48.06l3.52.88,3.52-.88c.25-.06.51-.07.77-.04l3.6.51c-.38-.54-.9-1.06-1.49-1.54h-.04Z"/>
  <path class="cls-1" d="m20.54,42.47c.36.55.86.89,1.42.89s1.01-.32,1.37-.83c.07-.1.13-.2.18-.31.27-.51.44-1.15.44-1.86,0-1.66-.9-3-2-3s-2,1.34-2,3c0,.66.15,1.27.39,1.76.06.12.12.24.19.35h0Z"/>
  <path class="cls-1" d="m32.76,42.75c.33.38.75.61,1.2.61s.83-.21,1.15-.55c.06-.07.12-.14.18-.22.41-.55.67-1.34.67-2.23,0-1.66-.9-3-2-3s-2,1.34-2,3c0,.84.23,1.6.6,2.14.06.09.13.17.2.25Z"/>
</svg>