<?xml version="1.0" encoding="UTF-8"?><svg id="a" xmlns="http://www.w3.org/2000/svg" viewBox="0 0 64 64"><path d="M25.18,26.31c-.57-2.71-2.68-11.01-7.95-15.91-1.7-1.48-3.4-2.29-4.88-2.29-2.14,0-3.45,1.69-3.92,3.15-1.39,4.33,1.95,7.18,3.78,7.88,3.91,1.53,4.86,2.31,5.96,3.4,.15,.15,.3,.3,.48,.46,1.38,1.25,2.53,3.05,3.42,4.79,.99-.58,2.02-1.07,3.1-1.49h0Z" fill="#8a8ed1"/><path d="M53.49,9.22c-1.2-.96-3.82-1.29-5.4-1.01-.3,.06-1.81,.51-2.83,1.26-2,1.49-3.32,3.44-4.57,6.75-.91,2.42-1.55,7.77-1.76,9.54-.03,.23-.05,.42-.07,.56,.99,.38,1.94,.84,2.86,1.36l.19-.4s.04-.09,.07-.13c2.1-3.71,4.48-7.67,6.06-10.11,.48-.74,1.38-1.07,2.23-.83,.27,.08,.52,.14,.75,.17,.61,.09,1.09,.11,1.52,.06,1.29-.17,2.15-.5,2.61-1.02,.32-.36,.84-1.29,.74-2.49-.11-1.31-.92-2.57-2.38-3.73h0Z" fill="#8a8ed1"/><path d="M59.84,12.61c-.14-1.68-.93-4.17-3.87-6.51-2.54-2.02-6.54-2.18-8.61-1.8-.51,.09-2.76,.71-4.48,1.99-3.31,2.46-4.85,5.7-5.91,8.54-.97,2.57-1.59,7.19-1.99,10.45-.98-.16-1.97-.25-2.99-.25s-1.99,.09-2.96,.24c-.71-3.33-3.1-12.21-9.14-17.83-2.52-2.2-5.06-3.31-7.53-3.31-4.01,0-6.76,2.97-7.7,5.91-2.07,6.43,2.35,11.37,6.14,12.82,3.4,1.33,3.9,1.82,4.59,2.51,.19,.19,.38,.38,.61,.59,1.07,.98,2.04,2.6,2.82,4.2-4.74,4.09-7.71,10-7.71,15.43,0,8.95,7.81,14.29,20.9,14.29s20.9-5.34,20.9-14.29c0-5.48-3.05-11.48-7.87-15.57l.45-.95c1.72-3.04,3.69-6.35,5.17-8.7,.89,.12,1.66,.13,2.4,.04,2.28-.3,3.94-1.06,5.07-2.31,1.26-1.41,1.91-3.46,1.73-5.48h0Z" fill="#200d38"/><path d="M55.13,15.44c-.46,.52-1.31,.85-2.61,1.02-.43,.06-.91,.04-1.52-.06-.23-.04-.48-.09-.75-.17-.85-.25-1.75,.09-2.23,.83-1.58,2.44-3.96,6.4-6.06,10.11-.02,.04-.05,.08-.07,.13l-.19,.4c-.92-.53-1.86-.98-2.86-1.36,.02-.14,.04-.33,.07-.56,.21-1.76,.86-7.13,1.76-9.54,1.24-3.3,2.57-5.27,4.57-6.75,1.02-.76,2.53-1.2,2.83-1.26,1.59-.3,4.2,.04,5.4,1.01,1.46,1.16,2.27,2.42,2.38,3.73,.1,1.2-.42,2.13-.74,2.49h0Z" fill="#8a8ed1"/><path d="M31.99,55.89c-3.97,0-16.92-.75-16.92-10.31,0-7.5,7.54-16.57,16.92-16.57s16.92,9.07,16.92,16.57c0,9.57-12.95,10.31-16.92,10.31Z" fill="#200d38"/><path d="M18.65,23.02c-.18-.17-.33-.32-.48-.46-1.1-1.09-2.05-1.87-5.96-3.4-1.84-.71-5.18-3.55-3.78-7.88,.47-1.45,1.77-3.15,3.92-3.15,1.47,0,3.18,.81,4.88,2.29,5.28,4.9,7.39,13.2,7.95,15.91-1.07,.41-2.11,.91-3.1,1.49-.9-1.73-2.04-3.53-3.42-4.79h0Z" fill="#8a8ed1"/><path d="M31.99,29.02c-9.38,0-16.92,9.07-16.92,16.57,0,9.57,12.95,10.31,16.92,10.31s16.92-.75,16.92-10.31c0-7.5-7.54-16.57-16.92-16.57Z" fill="#fff"/><ellipse cx="23.03" cy="43.95" rx="1.99" ry="2.99" fill="#fff"/><path d="M31.99,49.92c-1.37,0-2.49-.9-2.49-1.99s1.11-1.99,2.49-1.99,2.49,.9,2.49,1.99-1.11,1.99-2.49,1.99Z" fill="#fff"/><ellipse cx="40.95" cy="43.95" rx="1.99" ry="2.99" fill="#fff"/><ellipse cx="23.03" cy="43.95" rx="1.99" ry="2.99" fill="#200d38"/><ellipse cx="40.95" cy="43.95" rx="1.99" ry="2.99" fill="#200d38"/><path d="M31.99,45.94c-1.37,0-2.49,.9-2.49,1.99s1.11,1.99,2.49,1.99,2.49-.9,2.49-1.99-1.11-1.99-2.49-1.99Z" fill="#8a8ed1"/></svg>