<?xml version="1.0" encoding="UTF-8"?><svg id="a" xmlns="http://www.w3.org/2000/svg" viewBox="0 0 64 64"><path d="M32,4c-2.48,0-4.5,2.02-4.5,4.5s2.02,4.5,4.5,4.5,4.5-2.02,4.5-4.5-2.02-4.5-4.5-4.5Z" fill="#04e1cb"/><path d="M46,7.75c-2.15-1.24-4.91-.5-6.15,1.65s-.5,4.91,1.65,6.15,4.91,.5,6.15-1.65,.5-4.91-1.65-6.15Z" fill="#e26e8c"/><path d="M56.25,18c-1.24-2.15-4-2.89-6.15-1.65-2.15,1.24-2.89,4-1.65,6.15s4,2.89,6.15,1.65,2.89-4,1.65-6.15Z" fill="#fe9339"/><path d="M60,32c0-2.48-2.02-4.5-4.5-4.5s-4.5,2.02-4.5,4.5,2.02,4.5,4.5,4.5,4.5-2.02,4.5-4.5Z" fill="#70bf75"/><path d="M56.25,46c1.24-2.15,.5-4.91-1.65-6.15s-4.91-.5-6.15,1.65-.5,4.91,1.65,6.15,4.91,.5,6.15-1.65Z" fill="#0b5cab"/><path d="M46,56.25c2.15-1.24,2.89-4,1.65-6.15s-4-2.89-6.15-1.65c-2.15,1.24-2.89,4-1.65,6.15s4,2.89,6.15,1.65Z" fill="#032d60"/><path d="M32,60c2.48,0,4.5-2.02,4.5-4.5s-2.02-4.5-4.5-4.5-4.5,2.02-4.5,4.5,2.02,4.5,4.5,4.5Z" fill="#8a8ed1"/><path d="M18,56.25c2.15,1.24,4.91,.5,6.15-1.65s.5-4.91-1.65-6.15-4.91-.5-6.15,1.65-.5,4.91,1.65,6.15Z" fill="#481a54"/><path d="M7.75,46c1.24,2.15,4,2.89,6.15,1.65s2.89-4,1.65-6.15-4-2.89-6.15-1.65-2.89,4-1.65,6.15Z" fill="#91db8b"/><path d="M4,32c0,2.48,2.02,4.5,4.5,4.5s4.5-2.02,4.5-4.5-2.02-4.5-4.5-4.5-4.5,2.02-4.5,4.5Z" fill="#730394"/><path d="M7.75,18c-1.24,2.15-.5,4.91,1.65,6.15s4.91,.5,6.15-1.65,.5-4.91-1.65-6.15-4.91-.5-6.15,1.65Z" fill="#fcc003"/><path d="M18,7.75c-2.15,1.24-2.89,4-1.65,6.15,1.24,2.15,4,2.89,6.15,1.65s2.89-4,1.65-6.15-4-2.89-6.15-1.65Z" fill="#0d9dda"/></svg>