<?xml version="1.0" encoding="UTF-8"?><svg id="a" xmlns="http://www.w3.org/2000/svg" viewBox="0 0 64 64"><g><path d="M16.34,39.13c0,3.12-2.55,5.68-5.68,5.68s-5.68-2.55-5.68-5.68,2.55-5.68,5.68-5.68h5.68v5.68Z" fill="#e01e5a"/><path d="M19.2,39.13c0-3.12,2.55-5.68,5.68-5.68s5.68,2.55,5.68,5.68v14.21c0,3.12-2.55,5.68-5.68,5.68s-5.68-2.55-5.68-5.68v-14.21Z" fill="#e01e5a"/></g><g><path d="M24.87,16.34c-3.12,0-5.68-2.55-5.68-5.68s2.55-5.68,5.68-5.68,5.68,2.55,5.68,5.68v5.68h-5.68Z" fill="#36c5f0"/><path d="M24.87,19.2c3.12,0,5.68,2.55,5.68,5.68s-2.55,5.68-5.68,5.68H10.66c-3.12,0-5.68-2.55-5.68-5.68s2.55-5.68,5.68-5.68h14.21Z" fill="#36c5f0"/></g><g><path d="M47.66,24.87c0-3.12,2.55-5.68,5.68-5.68s5.68,2.55,5.68,5.68-2.55,5.68-5.68,5.68h-5.68v-5.68Z" fill="#2eb67d"/><path d="M44.8,24.87c0,3.12-2.55,5.68-5.68,5.68s-5.68-2.55-5.68-5.68V10.66c0-3.12,2.55-5.68,5.68-5.68s5.68,2.55,5.68,5.68v14.21Z" fill="#2eb67d"/></g><g><path d="M39.13,47.66c3.12,0,5.68,2.55,5.68,5.68s-2.55,5.68-5.68,5.68-5.68-2.55-5.68-5.68v-5.68h5.68Z" fill="#ecb22e"/><path d="M39.13,44.8c-3.12,0-5.68-2.55-5.68-5.68s2.55-5.68,5.68-5.68h14.21c3.12,0,5.68,2.55,5.68,5.68s-2.55,5.68-5.68,5.68h-14.21Z" fill="#ecb22e"/></g></svg>