<?xml version="1.0" encoding="UTF-8"?><svg id="a" xmlns="http://www.w3.org/2000/svg" viewBox="0 0 64 64"><polygon points="53.52 19 17.7 19 20.74 34 50.31 34 53.52 19" fill="#70bf75"/><path d="M53.93,36.42l4.07-19c.03-.15,.05-.31,.04-.47-.02-1.1-.94-1.98-2.04-1.95H16.89l-.89-4.4c-.19-.95-1.03-1.62-2-1.6h-6c-1.1,0-2,.9-2,2s.9,2,2,2h4.37l6.18,30.53c-2.09,.94-3.55,3.03-3.55,5.47,0,3.31,2.69,6,6,6s6-2.69,6-6c0-.7-.13-1.37-.35-2h14.7c-.22,.63-.35,1.3-.35,2,0,3.31,2.69,6,6,6s6-2.69,6-6c0-.7-.13-1.37-.35-2h1.28c1.1,0,2-.9,2-2s-.9-2-2-2H22.56l-1.01-5h30.38c.96,.02,1.8-.64,2-1.58Zm-4.93,12.58c0,1.1-.9,2-2,2s-2-.9-2-2,.9-2,2-2,2,.9,2,2ZM17.7,19H53.52l-3.21,15H20.74l-3.04-15Zm5.3,30c0,1.1-.9,2-2,2s-2-.9-2-2,.9-2,2-2,2,.9,2,2Z" fill="#396547"/><circle cx="21" cy="49" r="2" fill="#fff"/><circle cx="47" cy="49" r="2" fill="#fff"/></svg>