<?xml version="1.0" encoding="UTF-8"?><svg id="a" xmlns="http://www.w3.org/2000/svg" viewBox="0 0 200 200"><path d="M163.7,48.17c-12.55-11.91-32.24-11.91-44.78,.02l-16.1,16.1c-2.52,2.38-6.45,2.38-8.97,0l-16.1-16.1c-6.08-6.09-14.34-9.51-22.95-9.51-17.94-.03-32.51,14.5-32.53,32.44-.01,8.63,3.41,16.92,9.52,23.02l66.56,66.56,66.56-66.56c12.36-13.03,11.82-33.61-1.2-45.97Z" fill="#e26e8c"/><path d="M57.15,64c-5.25,0-9.51,4.26-9.51,9.51,0,3.5-2.84,6.34-6.34,6.34s-6.34-2.84-6.34-6.34c0-12.25,9.93-22.19,22.19-22.19,3.5,0,6.34,2.84,6.34,6.34s-2.84,6.34-6.34,6.34Z" fill="#e26e8c"/><path d="M173.84,39.21c-17.65-17.62-46.24-17.62-63.89,0l-11.6,11.6-11.6-11.6c-17.44-16.57-44.8-16.57-62.25,0-18.1,17.19-18.83,45.79-1.65,63.89l71.02,71.02c1.18,1.19,2.79,1.86,4.47,1.87,1.68,0,3.29-.68,4.47-1.87l71.02-71.02c17.62-17.65,17.62-46.24,0-63.89Z" fill="#8a033e"/><path d="M98.35,160.69L31.79,94.14c-6.11-6.1-9.53-14.39-9.52-23.02,.03-17.94,14.59-32.46,32.53-32.44,8.61,0,16.86,3.42,22.95,9.51l16.1,16.1c2.52,2.38,6.45,2.38,8.97,0l16.1-16.1c12.55-11.92,32.23-11.93,44.78-.02,13.03,12.36,13.56,32.94,1.2,45.97l-66.56,66.56Z" fill="#e26e8c"/><path d="M57.15,51.32c-12.25,0-22.19,9.93-22.19,22.19,0,3.5,2.84,6.34,6.34,6.34s6.34-2.84,6.34-6.34c0-5.25,4.26-9.51,9.51-9.51,3.5,0,6.34-2.84,6.34-6.34s-2.84-6.34-6.34-6.34Z" fill="#fff"/></svg>