<svg xmlns="http://www.w3.org/2000/svg" viewBox="0 0 64 64"><defs><style>.cls-1{fill:none;}.cls-2{fill:#91db8b;}.cls-3{fill:#194e31;}.cls-4{fill:#fff;}</style></defs><g id="invisi-border"><rect class="cls-1" width="64" height="64"/></g><g id="icon"><path class="cls-2" d="M39.24,36A2,2,0,0,1,41,35h6.43L32,9.81,16.56,35H23a2,2,0,0,1,1.7,3L16.6,51H30V37a2,2,0,0,1,4,0V51H47.38L39.29,38A2,2,0,0,1,39.24,36Z"/><path class="cls-2" d="M33.53,22l-5.47,9a1.93,1.93,0,0,1-2.71.71,2,2,0,0,1-.66-2.75l5.43-9a2,2,0,0,1,3.41,2.09Z"/><path class="cls-3" d="M44.6,39H51a2,2,0,0,0,2-2,2.12,2.12,0,0,0-.27-1L33.7,5A2,2,0,0,0,31,4.31a2,2,0,0,0-.67.67l-19,31A2,2,0,0,0,12,38.71,1.88,1.88,0,0,0,13,39h6.39L11.29,51.92A2,2,0,0,0,13,55H30v3a2,2,0,0,0,4,0V55H51a2,2,0,0,0,1.75-3Z"/><path class="cls-2" d="M34,51V37a2,2,0,0,0-4,0V51H16.6L24.69,38A2,2,0,0,0,23,35H16.56L32,9.81,47.42,35H41a2,2,0,0,0-1.75,1,2,2,0,0,0,0,2l8.14,13Z"/><path class="cls-4" d="M32.87,19.28a2,2,0,0,0-2.75.66l-5.47,8.94a2,2,0,0,0,.66,2.75A1.93,1.93,0,0,0,28,30.92L33.49,22A2,2,0,0,0,32.87,19.28Z"/></g></svg>