<svg xmlns="http://www.w3.org/2000/svg" viewBox="0 0 64 64"><defs><style>.cls-1{fill:none;}.cls-2{fill:#00a1e0;}.cls-3{fill:#032e61;}.cls-4{fill:#fff;}</style></defs><title>smb-day</title><g id="invisi-border"><rect class="cls-1" width="64" height="64"/></g><g id="icon"><polyline class="cls-2" points="13 29.47 13 53 38 53 38 29.47"/><path class="cls-3" d="M38,55H13a2,2,0,0,1-2-2V29.47a2,2,0,0,1,4,0V51H36V29.47a2,2,0,0,1,4,0V53A2,2,0,0,1,38,55Z"/><path class="cls-3" d="M51,55a2,2,0,0,1-2-2V32a2,2,0,0,1,4,0V53A2,2,0,0,1,51,55Z"/><path class="cls-4" d="M29,42H22a2,2,0,0,1,0-4h7a2,2,0,1,1,0,4Z"/><path class="cls-2" d="M45,27a8.47,8.47,0,0,1-6.5,3C36,30,33.08,28.92,32,27h0a8.17,8.17,0,0,1-6.5,3.08A8.43,8.43,0,0,1,19,27h0a8.39,8.39,0,0,1-6.53,3A8,8,0,0,1,6,27l5.81-16h40L58,27a8.54,8.54,0,0,1-13,0"/><path class="cls-3" d="M25.49,32A10.38,10.38,0,0,1,19,29.66a10.43,10.43,0,0,1-6.52,2.24,10,10,0,0,1-8-3.73,1.9,1.9,0,0,1-.29-1.82l5.81-16A1.9,1.9,0,0,1,11.81,9.1h40a1.9,1.9,0,0,1,1.77,1.21l6.19,16a1.9,1.9,0,0,1-.43,2A10.67,10.67,0,0,1,51.5,31.9,10.06,10.06,0,0,1,45,29.56,9.72,9.72,0,0,1,38.5,31.9a11.06,11.06,0,0,1-6.56-2.14A10.45,10.45,0,0,1,25.5,32ZM19,25.1h0a1.9,1.9,0,0,1,1.47.71,6.5,6.5,0,0,0,5,2.38h0a6.25,6.25,0,0,0,5-2.31,1.9,1.9,0,0,1,3.18.2c.63,1.12,2.81,2,4.85,2s3.41-.66,5.14-2.43a1.9,1.9,0,0,1,2.7,0A6.94,6.94,0,0,0,51.5,28.1a6.37,6.37,0,0,0,4.26-1.62L50.5,12.9H13.14l-5,13.66a6.31,6.31,0,0,0,4.29,1.54,6.52,6.52,0,0,0,5.07-2.31A1.9,1.9,0,0,1,19,25.1Z"/></g></svg>